<svg xmlns="http://www.w3.org/2000/svg" viewBox="0 0 105 105" width="105" height="105"><path d="M43.468 26.324v9.8H42.46V27.22h-2.31v-.896h3.318zm4.221 9.281c-.593-.4-1.055-.977-1.386-1.729-.331-.75-.497-1.635-.497-2.652s.166-1.902.497-2.654c.331-.75.793-1.327 1.386-1.729a3.527 3.527 0 0 1 2.023-.601c.756 0 1.43.2 2.023.601.592.402 1.057.978 1.393 1.73.336.75.504 1.636.504 2.653s-.168 1.901-.504 2.652c-.336.752-.8 1.329-1.393 1.73a3.525 3.525 0 0 1-2.023.602 3.52 3.52 0 0 1-2.023-.603zm3.528-.797c.434-.318.772-.78 1.014-1.387.244-.606.365-1.338.365-2.197s-.121-1.592-.365-2.199c-.242-.606-.58-1.068-1.014-1.385s-.936-.476-1.505-.476-1.07.158-1.505.476-.772.779-1.015 1.385c-.243.607-.364 1.34-.364 2.199s.121 1.59.364 2.197.58 1.07 1.015 1.387.936.476 1.505.476 1.071-.159 1.505-.476zm5.74.797c-.593-.4-1.055-.977-1.386-1.729-.332-.75-.497-1.635-.497-2.652s.165-1.902.497-2.654c.331-.75.793-1.327 1.386-1.729a3.525 3.525 0 0 1 2.022-.601c.757 0 1.431.2 2.024.601.593.402 1.057.978 1.393 1.73.336.75.504 1.636.504 2.653s-.168 1.901-.504 2.652c-.336.752-.8 1.329-1.393 1.73a3.523 3.523 0 0 1-2.024.602c-.755 0-1.43-.201-2.022-.603zm3.528-.797c.434-.318.772-.78 1.015-1.387.242-.606.364-1.338.364-2.197s-.122-1.592-.364-2.199c-.243-.606-.581-1.068-1.015-1.385-.434-.318-.936-.476-1.506-.476s-1.07.158-1.504.476c-.434.317-.773.779-1.015 1.385-.243.607-.364 1.34-.364 2.199s.12 1.59.364 2.197c.242.607.581 1.07 1.015 1.387.434.317.935.476 1.504.476s1.072-.159 1.506-.476z" fill="#0A61AD" stroke="#0A61AD"/><path d="M90.247 67.376h-6.988m3.494-3.494v6.989M22.341 83.212h-6.988m3.494-3.494v6.988" fill="none" stroke="#0A61AD" stroke-width="1.5"/><path d="M32.788 69.491h-4.523m2.261-2.262v4.524m-15.85-10.282h-4.505m2.253-2.253v4.506m68.317 15.794h-4.517m2.258-2.259v4.517" fill="none" stroke="#0A61AD"/></svg>