<svg xmlns="http://www.w3.org/2000/svg" viewBox="0 0 2500 770.004" width="224" height="69"><path fill="#005BAA" d="M2170.722 519.609c1.097-10.022 1.74-20.144 1.74-30.393 0-155.166-128.585-280.88-287.227-280.88-158.597 0-287.163 125.714-287.163 280.88 0 155.116 128.57 280.781 287.163 280.781 120.649 0 223.78-72.596 266.408-175.74l-123.795-21.689c-27.423 50.184-79.313 83.99-138.627 83.99-78.732 0-143.93-59.216-157.045-136.952h438.545v.003zm-281.497-194.701c67.228 0 124.65 43.294 148.086 104.578h-296.353c23.374-61.281 80.921-104.578 148.267-104.578zM1374.2 220.102h146.674v539.81H1374.2v-539.81zM1447.59 0c-45.277 0-81.832 36.754-81.832 81.842 0 45.019 36.555 81.675 81.832 81.675 45.095 0 81.729-36.656 81.729-81.675C1529.32 36.754 1492.686 0 1447.59 0M476.482 47.028v290.594H160.328V47.028H0V759.43h160.328V468.822h316.154V759.43h160.461V47.028h-160.46zm662.004 173.323v28.965c-42.632-25.83-92.59-40.667-146.12-40.667-155.49 0-281.604 125.634-281.604 280.677 0 155.012 126.114 280.677 281.605 280.677a281.406 281.406 0 0 0 142.732-38.693v28.123h143.117V220.35h-139.73zM999.519 651.663c-90.747 0-164.106-72.614-164.106-162.274 0-89.735 73.355-162.403 164.106-162.403 90.725 0 164.204 72.668 164.204 162.403-.003 89.66-73.482 162.274-164.204 162.274zM2475.737 169.97c-135.069 23.562-237.758 141.073-239.335 282.799V759.91h140.44l.072-312.915c0-71.634 53.776-130.752 123.086-139.235l-24.263-137.79z"/></svg>